# xmcd
#
# Track frame offsets:
#	150
#	16857
#	34272
#	51105
#
# Disc length: 927 seconds
#
# Revision: 1
# Processed by: cddbd v1.5PL3 Copyright (c) Steve Scherf et al.
# Submitted via: audiograbber 1.82.01
#
DISCID=28039d04
DTITLE=The Rapsody feat. LL Cool J - Dear Mallika (Maxi CD)
DYEAR=1900
DGENRE=
TTITLE0=Dear Mallika
TTITLE1=Dear Mallika (Radio Mix)
TTITLE2=Dear Mallika (D.O.N.S Radio Mix)
TTITLE3=Dear Mallika (Album Version)
EXTD=
EXTT0=
EXTT1=
EXTT2=
EXTT3=
PLAYORDER=
